# xmcd
#
# Track frame offsets:
#	150
#	11983
#	22738
#	36290
#	48109
#	58929
#	68368
#	81987
#	91546
#	105333
#	115807
#
# Disc length: 1687 seconds
#
# Revision: 1
# Processed by: cddbd v1.5.2PL0 Copyright (c) Steve Scherf et al.
# Submitted via: audiograbber 1.83.01
#
DISCID=7906950b
DTITLE=ALFREDO GUTIÉRREZ - Alfredo Gutiérrez Y Su Conjunto 2009
DYEAR=2009
DGENRE=Cumbia
TTITLE0=Se acabó quien te quería
TTITLE1=Tus recuerdos
TTITLE2=Paraíso
TTITLE3=Cariñito mío
TTITLE4=Golondrina
TTITLE5=Dientes de marfíl
TTITLE6=A nadie le cuentes
TTITLE7=Vente conmigo
TTITLE8=Tus amores
TTITLE9=Adiós noviazgo
TTITLE10=Mariposita
EXTD=
EXTT0=
EXTT1=
EXTT2=
EXTT3=
EXTT4=
EXTT5=
EXTT6=
EXTT7=
EXTT8=
EXTT9=
EXTT10=
PLAYORDER=
